<svg id="Layer_1" data-name="Layer 1" xmlns="http://www.w3.org/2000/svg" width="210mm" height="297mm" viewBox="0 0 595.3 841.9"><title>21-5_logo</title><path d="M283.2,330.4c42.5,0,64,8.4,73.6,27.8l39-25.4h38.4a224.3,224.3,0,0,0-288.4,2.4c12.6-3.4,28.4-4.8,47.8-4.8Z"/><path d="M319.6,625.4H248c-10.3,0-17.7,4.6-19.8,14.7H169.5V554.9h-63V479.4c0-27.3,17.8-45.3,61.6-48.4l77.9-4.9c49.7-3.1,53.1-4,53.1-25.8,0-18.1-1.8-22.1-45.4-22.1H208.6c-28.8,0-37.7,4.3-37.7,27.3V415H106.5V388.9a94.3,94.3,0,0,1,.6-10.9,224.3,224.3,0,0,0,56.7,312.3,89.1,89.1,0,0,1-1.7-18.1V659.3h62.4c0,18.7,5.2,23.9,36.4,23.9h63.6c31.2,0,34.5-8.6,34.5-30C359,628.1,350.8,625.4,319.6,625.4Z"/><path d="M477.1,379.9v175H414.5V386.2l-51.8,33.2c-3.7,44.5-21.9,53.2-90.6,56.9L201.9,480c-28.6,1.6-32.9,7.1-32.9,27.1H388.5v47.8H228.2v38.4c8.5-8.6,17.7-13.8,42.2-13.8h76.7c47.1,0,74.3,15.3,74.3,64.2v14.1c0,13.7-1.4,24.8-4.3,33.8a224.1,224.1,0,0,0,98-169.1c.4-5.5.6-11,.6-16.7A223.1,223.1,0,0,0,477.1,379.9Z"/></svg>
