<svg id="Layer_1" data-name="Layer 1" xmlns="http://www.w3.org/2000/svg" viewBox="0 0 448.6 446.5"><defs><style>.cls-1{fill:#3c4b6e;}</style></defs><title>Artboard 1</title><path class="cls-1" d="M216.1,48.9c42.5,0,64.1,8.5,73.7,27.8l39-25.4h38.4A224.46,224.46,0,0,0,78.7,53.7c12.6-3.4,28.4-4.9,47.8-4.9l89.6.1Z"/><path class="cls-1" d="M252.5,343.9H180.9c-10.4,0-17.7,4.6-19.9,14.7H102.3V273.4h-63V197.9c0-27.3,17.8-45.4,61.6-48.4l77.9-4.9c49.7-3.1,53.1-4,53.1-25.8,0-18.1-1.8-22.1-45.4-22.1H141.4c-28.8,0-37.7,4.3-37.7,27.3v9.5H39.4V107.4A93,93,0,0,1,40,96.5,224.29,224.29,0,0,0,96.7,408.8,89.11,89.11,0,0,1,95,390.7V377.9h62.4c0,18.7,5.2,23.8,36.4,23.8h63.6c31.2,0,34.5-8.6,34.5-30C291.9,346.6,283.7,343.9,252.5,343.9Z"/><path class="cls-1" d="M410,98.4v175H347.5V104.6l-51.8,33.2c-3.7,44.5-21.9,53.3-90.6,57l-70.3,3.7c-28.5,1.5-32.8,7.1-32.8,27H321.5v47.8H161.1v38.4c8.6-8.6,17.7-13.8,42.2-13.8H280c47.1,0,74.3,15.3,74.3,64.2v14.1c0,13.6-1.4,24.8-4.3,33.8a224.08,224.08,0,0,0,98-169.1c.4-5.5.6-11.1.6-16.7A223,223,0,0,0,410,98.4Z"/></svg>
