<svg id="Layer_1" data-name="Layer 1" xmlns="http://www.w3.org/2000/svg" xmlns:xlink="http://www.w3.org/1999/xlink" width="1920" height="1080" viewBox="0 0 1920 1080"><defs><style>.cls-1{fill:none;}.cls-2{clip-path:url(#clip-path);}.cls-3{fill:#96b2e0;opacity:0.11;}.cls-4{fill:#83a8f2;opacity:0.14;}</style><clipPath id="clip-path"><rect class="cls-1" width="1920" height="1080"/></clipPath></defs><title>waves9</title><g class="cls-2"><path class="cls-3" d="M2054.9,430.9c-111.5,24.8-232.4,4.3-329.5-55.8-48.7-30.2-96.5-71.5-153.8-70.6-60.1,1-107.8,47.9-159.9,78-88.9,51.4-204.3,53.5-295.2,5.5-54.5-28.7-100.3-74-158.7-93.9-66.4-22.6-141.2-8.6-203,24.6-33.2,17.9-63.4,41-96.6,58.9-145.8,78.9-325.9,106.1-457,16.2C153.3,360.9,64.5,331.3,6.4,332.6s-195,83.9-212.9,139.2L-125.1,771l-20.6,309H2055Z"/><path class="cls-4" d="M-224.9,797.9c116.9,24.8,243.5,4.3,345.2-55.8,51.1-30.2,101.1-71.5,161.2-70.6,63,1,112.9,47.9,167.5,78,93.2,51.4,214.1,53.5,309.3,5.5,57.1-28.7,105.1-74,166.3-93.9,69.5-22.6,148-8.6,212.7,24.6,34.8,17.9,66.4,41,101.2,58.9,152.8,78.9,341.4,106.1,478.9,16.2,50.2-32.9,143.2-62.5,204-61.2s204.4,83.9,223.1,139.2L2059.3,1138l21.5,309H-225Z"/></g></svg>
