<svg id="Layer_1" data-name="Layer 1" xmlns="http://www.w3.org/2000/svg" xmlns:xlink="http://www.w3.org/1999/xlink" width="1920" height="1080" viewBox="0 0 1920 1080"><defs><style>.cls-1{fill:none;}.cls-2{opacity:0.26;}.cls-3{clip-path:url(#clip-path);}.cls-4{fill:#a9e8dc;}.cls-5{fill:#02bec4;}.cls-6{fill:#0284a8;}.cls-7{fill:#02547d;}</style><clipPath id="clip-path"><rect class="cls-1" width="1920" height="1080"/></clipPath></defs><title>waves</title><g class="cls-2"><g class="cls-3"><path class="cls-4" d="M2054.7,438.4c-111.5,24.8-232.4,4.3-329.4-55.8-48.8-30.2-96.5-71.5-153.9-70.5-60.1,1-107.7,47.9-159.8,77.9-89,51.4-204.4,53.6-295.2,5.6-54.5-28.8-100.4-74.1-158.7-93.9C891.3,279,816.4,293,754.6,326.2c-33.2,17.9-63.4,41-96.6,59C512.2,464,332.2,491.3,201,401.3,153.1,368.4,64.3,338.8,6.3,340.2s-195.1,83.9-212.9,139.1l81.3,299.3-20.6,308.9H2054.8Z"/><path class="cls-5" d="M2217.9,629.8c-111.5,24.8-232.4,4.3-329.5-55.9-48.7-30.2-96.5-71.4-153.8-70.5-60.1,1-107.8,47.9-159.9,78-88.9,51.3-204.3,53.5-295.2,5.5-54.5-28.8-100.3-74-158.7-93.9-66.4-22.6-141.2-8.7-203,24.6-33.2,17.9-63.4,41-96.6,58.9-145.8,78.9-325.9,106.1-457,16.1-47.9-32.8-136.7-62.4-194.8-61.1s-195,83.9-212.9,139.2L37.9,969.9l-20.6,309H2218Z"/><path class="cls-6" d="M2110.9,828.9c-121.8,24.8-253.9,4.3-360-55.8-53.2-30.2-105.4-71.5-168-70.6-65.7,1-117.8,47.9-174.7,78-97.2,51.4-223.3,53.5-322.5,5.5-59.5-28.7-109.6-74-173.4-93.9-72.5-22.6-154.3-8.6-221.8,24.6-36.3,17.9-69.3,41-105.6,58.9C425.6,854.5,229,881.7,85.6,791.8c-52.3-32.9-149.3-62.5-212.7-61.2s-213.1,83.9-232.6,139.2l88.8,299.2-22.5,309H2111Z"/><path class="cls-7" d="M2217.9,1012.9c-111.5,24.8-232.4,4.3-329.5-55.8-48.7-30.2-96.5-71.5-153.8-70.6-60.1,1-107.8,47.9-159.9,78-88.9,51.4-204.3,53.5-295.2,5.5-54.5-28.7-100.3-74-158.7-93.9-66.4-22.6-141.2-8.6-203,24.6-33.2,17.9-63.4,41-96.6,58.9-145.8,78.9-325.9,106.1-457,16.2-47.9-32.9-136.7-62.5-194.8-61.2s-195,83.9-212.9,139.2L37.9,1353,17.3,1662H2218Z"/></g></g></svg>
